<?xml version="1.0" encoding="utf-8"?>
<!-- Generator: Adobe Illustrator 16.0.0, SVG Export Plug-In . SVG Version: 6.00 Build 0)  -->
<!DOCTYPE svg PUBLIC "-//W3C//DTD SVG 1.1//EN" "http://www.w3.org/Graphics/SVG/1.1/DTD/svg11.dtd">
<svg version="1.1" id="Layer_1" xmlns="http://www.w3.org/2000/svg" xmlns:xlink="http://www.w3.org/1999/xlink" x="0px" y="0px"
	 width="841.89px" height="595.28px" viewBox="0 0 841.89 595.28" enable-background="new 0 0 841.89 595.28" xml:space="preserve">
<g id="IPHONE_1_" enable-background="new    ">
	<g id="IPHONE">
		<g>
			<path fill="#010101" d="M222.878,286.435h-28c-1.657,0-3,1.343-3,3v52c0,1.656,1.343,3,3,3h28c1.657,0,3-1.344,3-3v-52
				C225.878,287.778,224.536,286.435,222.878,286.435z M208.878,341.435c-1.105,0-2-0.895-2-2s0.895-2,2-2c1.105,0,2,0.895,2,2
				S209.984,341.435,208.878,341.435z M222.878,334.435h-28v-42h28V334.435z"/>
		</g>
	</g>
</g>
<g id="MACBOOK_1_" enable-background="new    ">
	<g id="MACBOOK">
		<g>
			<path fill="#010101" d="M648.123,331.797v-43.771c0-2.501-2.027-4.528-4.528-4.528h-69.432c-2.501,0-4.528,2.027-4.528,4.528
				v43.771h-9.056v7.547c0,2.5,2.026,4.528,4.528,4.528h87.543c2.501,0,4.528-2.028,4.528-4.528v-7.547H648.123z M619.444,339.344
				h-21.131v-3.019h21.131V339.344z M642.085,328.778h-66.412v-39.244h66.412V328.778z"/>
		</g>
	</g>
</g>
<text transform="matrix(1 0 0 1 180.7671 371.8594)" font-family="'MicrosoftJhengHeiUILight'" font-size="18">移动端</text>
<text transform="matrix(1 0 0 1 367.9165 370.8594)"><tspan x="0" y="0" font-family="'MicrosoftJhengHeiUILight'" font-size="18">本地代理</tspan><tspan x="9" y="21.6" font-family="'MicrosoftJhengHeiUILight'" font-size="18">服务器</tspan></text>
<text transform="matrix(1 0 0 1 572.8789 370.8594)"><tspan x="0" y="0" font-family="'MicrosoftJhengHeiUILight'" font-size="18">本地静态</tspan><tspan x="9" y="21.6" font-family="'MicrosoftJhengHeiUILight'" font-size="18">服务器</tspan></text>
<line opacity="0.2" fill="none" stroke="#000000" stroke-width="4" stroke-miterlimit="10" x1="225.878" y1="313.685" x2="367.333" y2="313.685"/>
<line opacity="0.2" fill="none" stroke="#000000" stroke-width="4" stroke-miterlimit="10" x1="443.16" y1="313.685" x2="569.635" y2="313.685"/>
<g id="MACBOOK_2_" enable-background="new    ">
	<g id="MACBOOK_3_">
		<g>
			<path fill="#010101" d="M443.16,331.797v-43.771c0-2.501-2.027-4.528-4.528-4.528H369.2c-2.501,0-4.528,2.027-4.528,4.528v43.771
				h-9.056v7.547c0,2.5,2.026,4.528,4.528,4.528h87.543c2.501,0,4.528-2.028,4.528-4.528v-7.547H443.16z M414.481,339.344h-21.131
				v-3.019h21.131V339.344z M437.122,328.778H370.71v-39.244h66.412V328.778z"/>
		</g>
	</g>
</g>
</svg>
